<?xml version="1.0" encoding="UTF-8" standalone="no"?>
<!-- Created with Inkscape (http://www.inkscape.org/) -->

<svg
   width="215mm"
   height="215mm"
   viewBox="0 0 215 215"
   version="1.1"
   id="svg1"
   inkscape:version="1.3 (0e150ed6c4, 2023-07-21)"
   sodipodi:docname="hard_2.svg"
   inkscape:export-filename="success3_board.png"
   inkscape:export-xdpi="150"
   inkscape:export-ydpi="150"
   xmlns:inkscape="http://www.inkscape.org/namespaces/inkscape"
   xmlns:sodipodi="http://sodipodi.sourceforge.net/DTD/sodipodi-0.dtd"
   xmlns="http://www.w3.org/2000/svg"
   xmlns:svg="http://www.w3.org/2000/svg">
  <sodipodi:namedview
     id="namedview1"
     pagecolor="#ffffff"
     bordercolor="#000000"
     borderopacity="0.25"
     inkscape:showpageshadow="2"
     inkscape:pageopacity="0.0"
     inkscape:pagecheckerboard="0"
     inkscape:deskcolor="#d1d1d1"
     inkscape:document-units="mm"
     inkscape:zoom="0.70710678"
     inkscape:cx="421.43564"
     inkscape:cy="468.8118"
     inkscape:window-width="1920"
     inkscape:window-height="1051"
     inkscape:window-x="-9"
     inkscape:window-y="-9"
     inkscape:window-maximized="1"
     inkscape:current-layer="layer1"
     showgrid="false"
     showguides="true">
    <inkscape:grid
       id="grid1"
       units="mm"
       originx="5.8501476e-07"
       originy="-6.1454233e-07"
       spacingx="0.99999993"
       spacingy="1"
       empcolor="#0099e5"
       empopacity="0.30196078"
       color="#0099e5"
       opacity="0.14901961"
       empspacing="5"
       dotted="false"
       gridanglex="30"
       gridanglez="30"
       visible="false" />
    <sodipodi:guide
       position="1.5478515e-07,173.82425"
       orientation="0,656.97348"
       id="guide1"
       inkscape:locked="false" />
    <sodipodi:guide
       position="55,173.82425"
       orientation="-1,0"
       id="guide2"
       inkscape:locked="false"
       inkscape:label=""
       inkscape:color="rgb(0,134,229)" />
    <sodipodi:guide
       position="50,8.8242494"
       orientation="0,1"
       id="guide3"
       inkscape:locked="false"
       inkscape:label=""
       inkscape:color="rgb(0,134,229)" />
    <sodipodi:guide
       position="1.5478515e-07,1.6259767e-07"
       orientation="-656.97354,0"
       id="guide4"
       inkscape:locked="false" />
    <sodipodi:guide
       position="50,168.3115"
       orientation="-1,0"
       id="guide5"
       inkscape:locked="false"
       inkscape:label=""
       inkscape:color="rgb(0,134,229)" />
    <sodipodi:guide
       position="105,182.0934"
       orientation="-1,0"
       id="guide6"
       inkscape:locked="false"
       inkscape:label=""
       inkscape:color="rgb(0,134,229)" />
    <sodipodi:guide
       position="110,178.30338"
       orientation="-1,0"
       id="guide7"
       inkscape:locked="false"
       inkscape:label=""
       inkscape:color="rgb(0,134,229)" />
    <sodipodi:guide
       position="160,177.95883"
       orientation="-1,0"
       id="guide8"
       inkscape:locked="false"
       inkscape:label=""
       inkscape:color="rgb(0,134,229)" />
    <sodipodi:guide
       position="165,130.41126"
       orientation="-1,0"
       id="guide9"
       inkscape:locked="false"
       inkscape:label=""
       inkscape:color="rgb(0,134,229)" />
    <sodipodi:guide
       position="-57.539439,118.82425"
       orientation="0,1"
       id="guide10"
       inkscape:locked="false"
       inkscape:label=""
       inkscape:color="rgb(0,134,229)" />
    <sodipodi:guide
       position="-69.598603,13.824249"
       orientation="0,1"
       id="guide12"
       inkscape:locked="false"
       inkscape:label=""
       inkscape:color="rgb(0,134,229)" />
    <sodipodi:guide
       position="-70.287698,63.824249"
       orientation="0,1"
       id="guide13"
       inkscape:locked="false"
       inkscape:label=""
       inkscape:color="rgb(0,134,229)" />
    <sodipodi:guide
       position="-24.462875,68.824249"
       orientation="0,1"
       id="guide14"
       inkscape:locked="false"
       inkscape:label=""
       inkscape:color="rgb(0,134,229)" />
    <sodipodi:guide
       position="-38.589325,123.82425"
       orientation="0,1"
       id="guide15"
       inkscape:locked="false"
       inkscape:label=""
       inkscape:color="rgb(0,134,229)" />
    <sodipodi:guide
       position="-40.312062,220.68273"
       orientation="0,-1"
       id="guide16"
       inkscape:locked="false" />
  </sodipodi:namedview>
  <defs
     id="defs1" />
  <g
     inkscape:label="Layer 1"
     inkscape:groupmode="layer"
     id="layer1"
     transform="translate(-17.227379,-80.279579)">
    <rect
       style="fill:#ffffff;stroke-width:0.439836;stroke-linejoin:bevel"
       id="rect1"
       width="215"
       height="215"
       x="17.227379"
       y="80.279579" />
    <rect
       style="fill:#1f1f1f;fill-opacity:1;stroke-width:0.3556;stroke-linejoin:bevel"
       id="rect16"
       width="50"
       height="50"
       x="72.227379"
       y="80.279579" />
    <rect
       style="fill:#1f1f1f;fill-opacity:1;stroke-width:0.3556;stroke-linejoin:bevel"
       id="rect17"
       width="50"
       height="50"
       x="182.22739"
       y="190.27957" />
    <rect
       style="fill:#1f1f1f;fill-opacity:1;stroke-width:0.3556;stroke-linejoin:bevel"
       id="rect18"
       width="50"
       height="50"
       x="182.22739"
       y="135.27957" />
    <rect
       style="fill:#1f1f1f;fill-opacity:1;stroke-width:0.3556;stroke-linejoin:bevel"
       id="rect19"
       width="50"
       height="50"
       x="182.22739"
       y="80.279579" />
    <rect
       style="fill:#1f1f1f;fill-opacity:1;stroke-width:0.3556;stroke-linejoin:bevel"
       id="rect20"
       width="50"
       height="50"
       x="182.22739"
       y="245.27957" />
    <rect
       style="fill:#1f1f1f;fill-opacity:1;stroke-width:0.3556;stroke-linejoin:bevel"
       id="rect21"
       width="50"
       height="50"
       x="127.22738"
       y="245.27957" />
    <rect
       style="fill:#1f1f1f;fill-opacity:1;stroke-width:0.3556;stroke-linejoin:bevel"
       id="rect22"
       width="50"
       height="50"
       x="127.22738"
       y="135.27957" />
    <rect
       style="fill:#1f1f1f;fill-opacity:1;stroke-width:0.3556;stroke-linejoin:bevel"
       id="rect23"
       width="50"
       height="50"
       x="127.22738"
       y="190.27957" />
    <rect
       style="fill:#1f1f1f;fill-opacity:1;stroke-width:0.3556;stroke-linejoin:bevel"
       id="rect24"
       width="50"
       height="50"
       x="127.22738"
       y="80.279579" />
    <rect
       style="fill:#1f1f1f;fill-opacity:1;stroke-width:0.3556;stroke-linejoin:bevel"
       id="rect25"
       width="50"
       height="50"
       x="72.227379"
       y="190.27957" />
    <rect
       style="fill:#1f1f1f;fill-opacity:1;stroke-width:0.3556;stroke-linejoin:bevel"
       id="rect26"
       width="50"
       height="50"
       x="72.227379"
       y="245.27957" />
    <rect
       style="fill:#1f1f1f;fill-opacity:1;stroke-width:0.3556;stroke-linejoin:bevel"
       id="rect27"
       width="50"
       height="50"
       x="72.227379"
       y="135.27957" />
    <rect
       style="fill:#1f1f1f;fill-opacity:1;stroke-width:0.3556;stroke-linejoin:bevel"
       id="rect28"
       width="50"
       height="50"
       x="17.227379"
       y="245.27957" />
    <rect
       style="fill:#1f1f1f;fill-opacity:1;stroke-width:0.3556;stroke-linejoin:bevel"
       id="rect29"
       width="50"
       height="50"
       x="17.227379"
       y="190.27957" />
    <rect
       style="fill:#1f1f1f;fill-opacity:1;stroke-width:0.3556;stroke-linejoin:bevel"
       id="rect30"
       width="50"
       height="50"
       x="17.227379"
       y="135.27957" />
    <rect
       style="fill:#1f1f1f;fill-opacity:1;stroke-width:0.3556;stroke-linejoin:bevel"
       id="rect31"
       width="50"
       height="50"
       x="17.227379"
       y="80.279579" />
    <g
       id="g39"
       transform="translate(173.10179,-51.735524)">
      <path
         style="fill:#f4e7c5;fill-opacity:1;stroke-width:0.3556;stroke-linejoin:bevel"
         d="m -12.405954,150.29494 c -1.652238,0.4673 -3.078244,0.9003 -4.696354,1.28985 -0.563795,0.13573 -0.186044,-0.0126 -0.826823,0.16536 -0.0475,0.0132 -0.08552,0.0506 -0.132292,0.0662 -0.05333,0.0178 -0.112897,0.0129 -0.165364,0.0331 -0.186481,-0.0151 -0.256921,0.16931 -0.396875,0.23151 -0.05137,0.0228 -0.112535,0.0139 -0.165365,0.0331 -0.246615,0.0897 -0.454692,0.26102 -0.694531,0.36381 -0.02442,0.057 -0.29002,0.0829 -0.330729,0.0992 -0.05968,0.0239 -0.106027,0.0745 -0.165365,0.0992 -0.07408,0.0309 -0.158446,0.0329 -0.23151,0.0662 -0.05018,0.0228 -0.08192,0.0768 -0.132292,0.0992 -0.05137,0.0228 -0.112731,0.0133 -0.165364,0.0331 -0.03722,0.014 -0.06447,0.0468 -0.09922,0.0661 -0.294481,0.1636 -0.578504,0.30849 -0.859896,0.49609 -0.374266,0.24951 0.05736,-0.0452 -0.363802,0.16536 -0.08819,0.0441 -0.143322,0.12128 -0.231511,0.16537 -0.140808,0.0704 -0.259958,0.15327 -0.396875,0.23151 -0.141324,0.0808 -0.28436,0.15871 -0.429947,0.23151 -0.134689,0.0673 -0.33614,0.10781 -0.463021,0.19844 -0.03806,0.0272 -0.0603,0.0733 -0.09922,0.0992 -0.700246,0.46683 0.439166,-0.39156 -0.463021,0.26458 -0.03783,0.0275 -0.06302,0.0696 -0.09922,0.0992 -7.93e-4,7.9e-4 -0.292602,0.19338 -0.363802,0.26458 -0.02811,0.0281 -0.03597,0.0734 -0.06614,0.0992 -0.04881,0.0418 -0.11991,0.0538 -0.165365,0.0992 -0.03486,0.0349 -0.04078,0.09 -0.06615,0.13229 -0.008,0.0134 -0.02204,0.022 -0.03307,0.0331 -0.03307,0.0331 -0.07601,0.0586 -0.09922,0.0992 -0.02254,0.0395 -0.01712,0.0897 -0.03307,0.13229 -0.0173,0.0462 -0.0441,0.0882 -0.06615,0.1323 -0.0441,0.0992 -0.09642,0.19517 -0.132292,0.29765 -0.172175,0.49193 -0.37877,1.29177 -0.297656,1.81901 0.01061,0.0689 0.04924,0.1308 0.06615,0.19844 0.01627,0.0651 0.01185,0.13482 0.03307,0.19844 0.02513,0.0754 0.104378,0.124 0.132291,0.19843 0.01974,0.0526 0.01334,0.11274 0.03307,0.16537 0.09422,0.25124 0.370859,0.5496 0.529167,0.76068 0.0624,0.0832 0.09768,0.18561 0.165364,0.26458 0.02588,0.0302 0.07281,0.0364 0.09922,0.0661 0.154953,0.0722 0.143264,0.25034 0.231511,0.3638 0.201805,0.25946 0.485767,0.44401 0.694531,0.69453 0.06483,0.0778 0.0866,0.15536 0.132291,0.23151 0.09946,0.16577 0.201192,0.32728 0.297657,0.49609 0.07967,0.13942 0.2164,0.26145 0.297656,0.39688 0.01794,0.0299 0.01074,0.0724 0.03307,0.0992 0.03529,0.0423 0.09044,0.0633 0.132291,0.0992 0.171906,0.14734 0.356987,0.31724 0.496094,0.49609 0.03946,0.0507 0.05376,0.11991 0.09922,0.16536 0.05292,0.0529 0.174882,0.0757 0.23151,0.1323 0.04991,0.0499 0.100725,0.10222 0.132292,0.16536 0.0049,0.01 -0.0099,0.0281 0,0.0331 0.01971,0.01 0.0478,-0.0122 0.06615,0 0.04658,0.031 0.09132,0.16141 0.165364,0.19844 0.03118,0.0156 0.07133,0.0121 0.09922,0.0331 0.01707,0.0128 0.1162,0.15464 0.132292,0.16537 0.039,0.026 0.164793,0.0106 0.198437,0.0331 0.01834,0.0122 -0.01558,0.0506 0,0.0662 0.08432,0.0843 0.191,0.1451 0.297657,0.19843 0.109251,0.0546 0.613373,0.10423 0.727604,0.0662 0.01479,-0.005 0.01794,-0.0293 0.03307,-0.0331 0.05347,-0.0134 0.119501,0.0306 0.165364,0 0.02051,-0.0137 0.01257,-0.0525 0.03307,-0.0661 0.01834,-0.0122 0.04523,0.007 0.06615,0 0.01479,-0.005 0.01913,-0.0261 0.03307,-0.0331 0.0099,-0.005 0.02204,0 0.03307,0 0.0441,-0.022 0.09442,-0.0346 0.132292,-0.0661 0.03054,-0.0255 0.03511,-0.0744 0.06615,-0.0992 0.07535,-0.0603 0.213964,-0.0821 0.297657,-0.13229 0.08715,-0.0523 0.148243,-0.14015 0.23151,-0.19844 0.204579,-0.1432 0.614286,-0.47259 0.727604,-0.66145 0.0432,-0.072 0.06448,-0.15508 0.09922,-0.23151 0.147791,-0.32514 0.410628,-0.87758 0.628385,-1.15756 0.08615,-0.11076 0.210003,-0.18808 0.297657,-0.29765 0.153384,-0.19173 0.305109,-0.5103 0.46302,-0.69453 0.02588,-0.0302 0.07717,-0.0331 0.09922,-0.0661 0.04657,-0.0699 0.05665,-0.15914 0.09922,-0.23151 0.06823,-0.11599 0.158406,-0.21775 0.23151,-0.33073 0.09374,-0.14487 0.135792,-0.31944 0.231511,-0.46302 0.04324,-0.0649 0.123211,-0.0998 0.165364,-0.16536 0.115025,-0.17893 0.155507,-0.40108 0.231511,-0.59532 0.171926,-0.43936 0.307864,-0.63614 0.429948,-1.12448 0.02138,-0.0856 0,-0.17639 0,-0.26458 0.03307,-0.11024 0.06051,-0.22234 0.09922,-0.33073 0.05821,-0.16298 0.08861,-0.12496 0.165365,-0.29765 0.01847,-0.0415 0.02204,-0.0882 0.03307,-0.1323 0.0441,-0.0772 0.09551,-0.15059 0.132292,-0.23151 0.04763,-0.10478 0.05309,-0.22528 0.09922,-0.33073 0.0494,-0.11292 0.116811,-0.21744 0.165365,-0.33073 0.05083,-0.1186 0.07459,-0.24838 0.132292,-0.3638 0.05333,-0.10665 0.137085,-0.1954 0.198437,-0.29765 0.112689,-0.18782 0.232926,-0.39971 0.330729,-0.59532 0.272566,-0.54513 -0.06536,0.06 0.198438,-0.42994 0.04214,-0.0783 0.09811,-0.14947 0.132291,-0.23151 0.02162,-0.0519 0.01146,-0.11348 0.03307,-0.16537 0.09368,-0.22484 0.263081,-0.4068 0.363802,-0.62838 0.05722,-0.1259 0.115864,-0.29795 0.165365,-0.42995 0.01595,-0.0426 0.0097,-0.0933 0.03307,-0.13229 0.01267,-0.0211 0.05247,-0.0126 0.06615,-0.0331 0.02453,-0.0368 0.03003,-0.25547 0.03307,-0.26458 0.0078,-0.0234 0.04871,-0.0156 0.06614,-0.0331 0.02045,-0.0205 -0.0078,-0.10125 0,-0.13229 0.02283,-0.0914 0.07879,-0.17264 0.09922,-0.26459 0.01278,-0.0575 0.0168,-0.59585 0.03307,-0.62838 0.01103,-0.022 0.05247,-0.0126 0.06615,-0.0331 0.01593,-0.0239 -0.0064,-0.10014 0,-0.13229 0.01103,-0.0551 0.05085,-0.11203 0.03307,-0.16536 -0.01879,-0.0563 -0.0441,-0.11025 -0.06615,-0.16537 z"
         id="path39" />
      <g
         id="g38"
         transform="matrix(1.5291298,0,0,1.5291298,102.56318,-109.83023)">
        <path
           style="fill:#ac8116;fill-opacity:1;stroke-width:0.3556;stroke-linejoin:bevel"
           d="m -88.548721,173.47969 h 6.201854 l 2.067285,5.68504 -8.613689,-1.20592 c -1.093208,-0.0856 -1.73407,-0.34454 -2.75638,-0.34454"
           id="path31" />
        <path
           style="fill:#1f1f1f;fill-opacity:1;stroke-width:0.3556;stroke-linejoin:bevel"
           d="m -80.279579,179.337 10.508699,-5.16821 -1.378191,-4.82367"
           id="path33" />
        <path
           style="fill:#1f1f1f;fill-opacity:1;stroke-width:0.3556;stroke-linejoin:bevel"
           d="m -82.174591,173.47969 11.025521,-4.30684"
           id="path34" />
        <path
           style="fill:#1f1f1f;fill-opacity:1;stroke-width:0.3556;stroke-linejoin:bevel"
           d="m -75.111367,167.96693 4.13457,1.55047"
           id="path35" />
        <path
           style="fill:#1f1f1f;fill-opacity:1;stroke-width:0.3556;stroke-linejoin:bevel"
           d="m -71.106001,169.25899 -4.565256,0.25841 -12.79133,3.91923"
           id="path36" />
        <path
           style="fill:#ddb650;fill-opacity:1;stroke-width:0.3556;stroke-linejoin:bevel"
           d="m -82.389935,173.43663 11.327002,-4.13458 1.33512,4.7806 -10.465632,5.12515 c 0.114849,0 0.229698,0 0.344548,0"
           id="path37" />
        <path
           style="fill:#d2a023;fill-opacity:1;stroke-width:0.3556;stroke-linejoin:bevel"
           d="m -88.54694,173.4764 12.883758,-3.95631 4.551795,-0.2611 -11.539651,4.20725"
           id="path38" />
      </g>
    </g>
    <g
       id="g48"
       transform="matrix(0.62763321,0,0,0.62763321,212.8655,175.65887)">
      <ellipse
         style="fill:#41c225;fill-opacity:1;stroke-width:0.3556;stroke-linejoin:bevel"
         id="path40"
         cx="-98.130951"
         cy="153.56917"
         rx="16.404167"
         ry="16.933332" />
      <g
         id="g44"
         transform="matrix(1.3220347,0,0,1.3620688,67.66264,-43.893499)">
        <ellipse
           style="fill:#41c225;fill-opacity:1;stroke-width:0.3556;stroke-linejoin:bevel"
           id="path41"
           cx="-138.4304"
           cy="146.04124"
           rx="3.5546846"
           ry="3.3675961" />
        <ellipse
           style="fill:#41c225;fill-opacity:1;stroke-width:0.3556;stroke-linejoin:bevel"
           id="path42"
           cx="-142.21893"
           cy="148.98788"
           rx="2.0112033"
           ry="1.9176589" />
        <circle
           style="fill:#41c225;fill-opacity:1;stroke-width:0.3556;stroke-linejoin:bevel"
           id="path43"
           cx="-143.90274"
           cy="150.85878"
           r="1.3563927" />
        <circle
           style="fill:#41c225;fill-opacity:1;stroke-width:0.3556;stroke-linejoin:bevel"
           id="path44"
           cx="-144.83817"
           cy="152.44904"
           r="1.0757599" />
      </g>
      <g
         id="g46"
         transform="matrix(-1.3220347,0,0,1.3620688,-263.13986,-46.51274)">
        <ellipse
           style="fill:#41c225;fill-opacity:1;stroke-width:0.3556;stroke-linejoin:bevel"
           id="ellipse44"
           cx="-138.4304"
           cy="146.04124"
           rx="3.5546846"
           ry="3.3675961" />
        <ellipse
           style="fill:#41c225;fill-opacity:1;stroke-width:0.3556;stroke-linejoin:bevel"
           id="ellipse45"
           cx="-142.21893"
           cy="148.98788"
           rx="2.0112033"
           ry="1.9176589" />
        <circle
           style="fill:#41c225;fill-opacity:1;stroke-width:0.3556;stroke-linejoin:bevel"
           id="circle45"
           cx="-143.90274"
           cy="150.85878"
           r="1.3563927" />
        <circle
           style="fill:#41c225;fill-opacity:1;stroke-width:0.3556;stroke-linejoin:bevel"
           id="circle46"
           cx="-144.83817"
           cy="152.44904"
           r="1.0757599" />
      </g>
      <circle
         style="fill:#ffe6ff;fill-opacity:1;stroke-width:0.3556;stroke-linejoin:bevel"
         id="path46"
         cx="-98.206322"
         cy="150.62491"
         r="7.1093693" />
      <ellipse
         style="fill:#130039;fill-opacity:1;stroke-width:0.3556;stroke-linejoin:bevel"
         id="path47"
         cx="-98.066017"
         cy="150.76523"
         rx="2.6660137"
         ry="2.3853805" />
      <ellipse
         style="fill:#ffffff;fill-opacity:1;stroke-width:0.3556;stroke-linejoin:bevel"
         id="path48"
         cx="-97.037025"
         cy="149.80641"
         rx="0.32740518"
         ry="0.28063297" />
    </g>
    <path
       style="color:#000000;fill:#ffffff;fill-opacity:1;fill-rule:evenodd;stroke-width:0.264583;-inkscape-stroke:none"
       d="m 41.520043,150.00625 c -3.00494,-0.23919 -5.38179,2.30395 -7.77782,4.44623 -4.27229,3.81986 -5.61609,8.98625 -1.70325,13.301 3.44433,3.79812 9.49189,3.46148 13.3289,-0.0801 3.32431,-3.06834 3.67275,-7.46912 0.50178,-10.82776 -2.69172,-2.85102 -6.86885,-2.30242 -9.74814,0.49892 -2.37851,2.31412 -2.61851,4.92849 -0.18529,7.32686 1.93498,1.90726 4.63452,1.83983 6.54914,-0.22779 1.43817,-1.55311 1.78573,-3.54776 0.0791,-4.97283 -0.5828,-0.48663 -1.34905,-0.55501 -2.09858,-0.52348 -0.74953,0.0315 -1.48375,0.16515 -1.94407,0.84284 -0.25912,0.38149 -0.38596,0.90834 -0.32142,1.38855 0.0645,0.48021 0.32514,0.91596 0.83767,1.09606 0.20059,0.0705 0.52426,0.0275 0.75758,-0.0997 0.11666,-0.0636 0.21182,-0.14997 0.24959,-0.26096 0.0378,-0.111 0.013,-0.24232 -0.0951,-0.37983 l -0.0553,0.0434 c 0.0983,0.12514 0.11388,0.22708 0.0842,0.31419 -0.0296,0.0871 -0.10939,0.16328 -0.21652,0.2217 -0.21425,0.11682 -0.53322,0.15413 -0.70125,0.0951 -0.4864,-0.17092 -0.72916,-0.57781 -0.79117,-1.03921 -0.062,-0.46141 0.0614,-0.97465 0.30955,-1.33997 0.44705,-0.65817 1.14497,-0.97124 1.87637,-1.00201 0.73139,-0.0308 1.49486,0.22235 2.06344,0.69712 1.67273,1.39673 1.53446,3.97398 0.12144,5.49992 -1.88558,2.03626 -5.15052,1.81758 -7.059,-0.0636 -2.40338,-2.36895 -2.10263,-6.33056 0.24908,-8.6186 2.84964,-2.77249 6.76992,-2.2944 9.06146,0.84078 2.79203,3.81993 3.79114,8.28884 0.49454,11.3316 -3.80708,3.51396 -9.87743,2.96189 -13.29634,-0.80822 -3.88562,-4.28473 -3.24874,-11.06084 0.99529,-14.85542 4.76196,-4.25767 12.24462,-3.53641 16.4145,1.18184 4.63001,5.23889 3.8238,13.42867 -1.36891,17.97358 l -1.31292,-2.13596 c 5.22136,-4.56999 7.39067,-10.61459 2.73402,-15.88362 -2.09753,-2.37336 -5.02764,-3.74145 -8.03259,-3.98063 z"
       id="path49"
       sodipodi:nodetypes="sssssssssssssssccsssssssssssssssccss" />
    <path
       style="color:#000000;fill:#ffffff;fill-opacity:1;fill-rule:evenodd;stroke-width:0.264583;-inkscape-stroke:none"
       d="m 98.39499,206.13285 c -3.00494,-0.23919 -5.38179,2.30395 -7.77782,4.44623 -4.27229,3.81986 -5.61609,8.98625 -1.70325,13.301 3.44433,3.79812 9.49189,3.46148 13.3289,-0.0801 3.32431,-3.06834 3.67275,-7.46912 0.50178,-10.82776 -2.69172,-2.85102 -6.86885,-2.30242 -9.74814,0.49892 -2.37851,2.31412 -2.61851,4.92849 -0.18529,7.32686 1.93498,1.90726 4.63452,1.83983 6.54914,-0.22779 1.43817,-1.55311 1.78573,-3.54776 0.0791,-4.97283 -0.5828,-0.48663 -1.34905,-0.55501 -2.09858,-0.52348 -0.74953,0.0315 -1.48375,0.16515 -1.94407,0.84284 -0.25912,0.38149 -0.38596,0.90834 -0.32142,1.38855 0.0645,0.48021 0.32514,0.91596 0.83767,1.09606 0.20059,0.0705 0.52426,0.0275 0.75758,-0.0997 0.11666,-0.0636 0.21182,-0.14997 0.24959,-0.26096 0.0378,-0.111 0.013,-0.24232 -0.0951,-0.37983 l -0.0553,0.0434 c 0.0983,0.12514 0.11388,0.22708 0.0842,0.31419 -0.0296,0.0871 -0.10939,0.16328 -0.21652,0.2217 -0.21425,0.11682 -0.53322,0.15413 -0.70125,0.0951 -0.4864,-0.17092 -0.72916,-0.57781 -0.79117,-1.03921 -0.062,-0.46141 0.0614,-0.97465 0.30955,-1.33997 0.44705,-0.65817 1.14497,-0.97124 1.87637,-1.00201 0.73139,-0.0308 1.49486,0.22235 2.06344,0.69712 1.67273,1.39673 1.53446,3.97398 0.12144,5.49992 -1.88558,2.03626 -5.15052,1.81758 -7.059,-0.0636 -2.40338,-2.36895 -2.10263,-6.33056 0.24908,-8.6186 2.84964,-2.77249 6.76992,-2.2944 9.06146,0.84078 2.79203,3.81993 3.79114,8.28884 0.49454,11.3316 -3.80708,3.51396 -9.87743,2.96189 -13.29634,-0.80822 -3.88562,-4.28473 -3.24874,-11.06084 0.99529,-14.85542 4.76196,-4.25767 12.24462,-3.53641 16.4145,1.18184 4.63001,5.23889 3.8238,13.42867 -1.36891,17.97358 l -1.31292,-2.13596 c 5.22136,-4.56999 7.39067,-10.61459 2.73402,-15.88362 -2.09753,-2.37336 -5.02764,-3.74145 -8.03259,-3.98063 z"
       id="path57"
       sodipodi:nodetypes="sssssssssssssssccsssssssssssssssccss" />
    <path
       style="color:#000000;fill:#ffffff;fill-opacity:1;fill-rule:evenodd;stroke-width:0.264583;-inkscape-stroke:none"
       d="m 96.898289,96.124713 c -3.00494,-0.23919 -5.38179,2.30395 -7.77782,4.446227 -4.27229,3.81986 -5.61609,8.98625 -1.70325,13.301 3.44433,3.79812 9.49189,3.46148 13.328901,-0.0801 3.32431,-3.06834 3.67275,-7.46912 0.50178,-10.82776 -2.691721,-2.85102 -6.868851,-2.30242 -9.748141,0.49892 -2.37851,2.31412 -2.61851,4.92849 -0.18529,7.32686 1.93498,1.90726 4.63452,1.83983 6.54914,-0.22779 1.43817,-1.55311 1.78573,-3.54776 0.0791,-4.97283 -0.5828,-0.48663 -1.34905,-0.55501 -2.09858,-0.52348 -0.74953,0.0315 -1.48375,0.16515 -1.94407,0.84284 -0.25912,0.38149 -0.38596,0.90834 -0.32142,1.38855 0.0645,0.48021 0.32514,0.91596 0.83767,1.09606 0.20059,0.0705 0.52426,0.0275 0.75758,-0.0997 0.11666,-0.0636 0.21182,-0.14997 0.24959,-0.26096 0.0378,-0.111 0.013,-0.24232 -0.0951,-0.37983 l -0.0553,0.0434 c 0.0983,0.12514 0.11388,0.22708 0.0842,0.31419 -0.0296,0.0871 -0.10939,0.16328 -0.21652,0.2217 -0.21425,0.11682 -0.53322,0.15413 -0.70125,0.0951 -0.4864,-0.17092 -0.72916,-0.57781 -0.79117,-1.03921 -0.062,-0.46141 0.0614,-0.97465 0.30955,-1.33997 0.44705,-0.65817 1.14497,-0.97124 1.87637,-1.00201 0.73139,-0.0308 1.49486,0.22235 2.06344,0.69712 1.67273,1.39673 1.53446,3.97398 0.12144,5.49992 -1.88558,2.03626 -5.15052,1.81758 -7.059,-0.0636 -2.40338,-2.36895 -2.10263,-6.33056 0.24908,-8.6186 2.84964,-2.772487 6.76992,-2.2944 9.061461,0.84078 2.79203,3.81993 3.79114,8.28884 0.49454,11.3316 -3.807081,3.51396 -9.877431,2.96189 -13.296341,-0.80822 -3.88562,-4.28473 -3.24874,-11.06084 0.99529,-14.855417 4.76196,-4.25767 12.244621,-3.53641 16.414501,1.181837 4.63001,5.23889 3.8238,13.42867 -1.36891,17.97358 l -1.31292,-2.13596 c 5.22136,-4.56999 7.39067,-10.61459 2.73402,-15.88362 -2.09753,-2.373357 -5.027641,-3.741447 -8.032591,-3.980627 z"
       id="path1"
       sodipodi:nodetypes="sssssssssssssssccsssssssssssssssccss" />
    <path
       style="color:#000000;fill:#ffffff;fill-opacity:1;fill-rule:evenodd;stroke-width:0.264583;-inkscape-stroke:none"
       d="m 96.149926,148.50954 c -3.00494,-0.23919 -5.38179,2.30395 -7.77782,4.44623 -4.27229,3.81986 -5.61609,8.98625 -1.70325,13.301 3.44433,3.79812 9.49189,3.46148 13.3289,-0.0801 3.324314,-3.06834 3.672754,-7.46912 0.501784,-10.82776 -2.691724,-2.85102 -6.868854,-2.30242 -9.748144,0.49892 -2.37851,2.31412 -2.61851,4.92849 -0.18529,7.32686 1.93498,1.90726 4.63452,1.83983 6.54914,-0.22779 1.43817,-1.55311 1.78573,-3.54776 0.0791,-4.97283 -0.5828,-0.48663 -1.34905,-0.55501 -2.09858,-0.52348 -0.74953,0.0315 -1.48375,0.16515 -1.94407,0.84284 -0.25912,0.38149 -0.38596,0.90834 -0.32142,1.38855 0.0645,0.48021 0.32514,0.91596 0.83767,1.09606 0.20059,0.0705 0.52426,0.0275 0.75758,-0.0997 0.11666,-0.0636 0.21182,-0.14997 0.24959,-0.26096 0.0378,-0.111 0.013,-0.24232 -0.0951,-0.37983 l -0.0553,0.0434 c 0.0983,0.12514 0.11388,0.22708 0.0842,0.31419 -0.0296,0.0871 -0.10939,0.16328 -0.21652,0.2217 -0.21425,0.11682 -0.53322,0.15413 -0.70125,0.0951 -0.4864,-0.17092 -0.72916,-0.57781 -0.79117,-1.03921 -0.062,-0.46141 0.0614,-0.97465 0.30955,-1.33997 0.44705,-0.65817 1.14497,-0.97124 1.87637,-1.00201 0.73139,-0.0308 1.49486,0.22235 2.06344,0.69712 1.67273,1.39673 1.53446,3.97398 0.12144,5.49992 -1.88558,2.03626 -5.15052,1.81758 -7.059,-0.0636 -2.40338,-2.36895 -2.10263,-6.33056 0.24908,-8.6186 2.84964,-2.77249 6.76992,-2.2944 9.06146,0.84078 2.792034,3.81993 3.791144,8.28884 0.494544,11.3316 -3.807084,3.51396 -9.877434,2.96189 -13.296344,-0.80822 -3.88562,-4.28473 -3.24874,-11.06084 0.99529,-14.85542 4.76196,-4.25767 12.24462,-3.53641 16.414504,1.18184 4.63001,5.23889 3.8238,13.42867 -1.36891,17.97358 l -1.31292,-2.13596 c 5.22136,-4.56999 7.39067,-10.61459 2.73402,-15.88362 -2.09753,-2.37336 -5.027644,-3.74145 -8.032594,-3.98063 z"
       id="path3"
       sodipodi:nodetypes="sssssssssssssssccsssssssssssssssccss" />
    <path
       style="color:#000000;fill:#ffffff;fill-opacity:1;fill-rule:evenodd;stroke-width:0.264583;-inkscape-stroke:none"
       d="m 42.642567,93.131294 c -3.00494,-0.23919 -5.38179,2.30395 -7.77782,4.44623 -4.27229,3.819856 -5.61609,8.986246 -1.70325,13.300996 3.44433,3.79812 9.49189,3.46148 13.3289,-0.0801 3.324314,-3.06834 3.672754,-7.46912 0.501784,-10.827756 -2.691724,-2.85102 -6.868854,-2.30242 -9.748144,0.498916 -2.37851,2.31412 -2.61851,4.92849 -0.18529,7.32686 1.93498,1.90726 4.63452,1.83983 6.54914,-0.22779 1.43817,-1.55311 1.78573,-3.54776 0.0791,-4.97283 -0.5828,-0.48663 -1.34905,-0.55501 -2.09858,-0.52348 -0.74953,0.0315 -1.48375,0.16515 -1.94407,0.84284 -0.25912,0.38149 -0.38596,0.90834 -0.32142,1.38855 0.0645,0.48021 0.32514,0.91596 0.83767,1.09606 0.20059,0.0705 0.52426,0.0275 0.75758,-0.0997 0.11666,-0.0636 0.21182,-0.14997 0.24959,-0.26096 0.0378,-0.111 0.013,-0.24232 -0.0951,-0.37983 l -0.0553,0.0434 c 0.0983,0.12514 0.11388,0.22708 0.0842,0.31419 -0.0296,0.0871 -0.10939,0.16328 -0.21652,0.2217 -0.21425,0.11682 -0.53322,0.15413 -0.70125,0.0951 -0.4864,-0.17092 -0.72916,-0.57781 -0.79117,-1.03921 -0.062,-0.46141 0.0614,-0.97465 0.30955,-1.33997 0.44705,-0.65817 1.14497,-0.97124 1.87637,-1.00201 0.73139,-0.0308 1.49486,0.22235 2.06344,0.69712 1.67273,1.39673 1.53446,3.97398 0.12144,5.49992 -1.88558,2.03626 -5.15052,1.81758 -7.059,-0.0636 -2.40338,-2.36895 -2.10263,-6.33056 0.24908,-8.618596 2.84964,-2.77249 6.76992,-2.2944 9.06146,0.840776 2.792034,3.81993 3.791144,8.28884 0.494544,11.3316 -3.807084,3.51396 -9.877434,2.96189 -13.296344,-0.80822 -3.88562,-4.28473 -3.24874,-11.060836 0.99529,-14.855416 4.76196,-4.25767 12.24462,-3.53641 16.414504,1.18184 4.63001,5.238886 3.8238,13.428666 -1.36891,17.973576 l -1.31292,-2.13596 c 5.22136,-4.56999 7.39067,-10.61459 2.73402,-15.883616 -2.09753,-2.37336 -5.027644,-3.74145 -8.032594,-3.98063 z"
       id="path4"
       sodipodi:nodetypes="sssssssssssssssccsssssssssssssssccss" />
  </g>
</svg>
